<svg width="78" height="53" viewBox="0 0 78 53" fill="none" xmlns="http://www.w3.org/2000/svg">
<path d="M15.424 21.088L15.296 13.536H6.912C6.86933 16.736 6.848 19.1253 6.848 20.704L9.056 20.992C9.056 21.8667 8.81067 22.7947 8.32 23.776H0.544L0.256 22.016C1.45067 21.5253 2.34667 21.216 2.944 21.088C2.944 21.024 2.848 15.3813 2.656 4.16L0 3.328L0.256 1.376H8.544C8.88533 1.952 9.088 2.79467 9.152 3.904C8.064 4.07467 7.34933 4.18133 7.008 4.224C6.96533 6.99733 6.944 9.07733 6.944 10.464H15.232L15.136 4.16L12.48 3.328L12.736 1.376H21.024C21.3653 1.952 21.568 2.79467 21.632 3.904C20.544 4.07467 19.8293 4.18133 19.488 4.224L19.328 20.704L21.536 20.992C21.536 21.8667 21.2907 22.7947 20.8 23.776H13.024L12.736 22.016C13.9307 21.5253 14.8267 21.216 15.424 21.088ZM32.2925 9.696C31.5245 9.696 30.6498 9.888 29.6685 10.272C29.3912 10.6987 29.1245 11.456 28.8685 12.544C28.6338 13.6107 28.5165 14.688 28.5165 15.776C28.5165 17.7813 28.8152 19.2107 29.4125 20.064C30.0098 20.896 30.9698 21.312 32.2925 21.312C33.6365 21.312 34.6072 20.896 35.2045 20.064C35.8018 19.2107 36.1005 17.76 36.1005 15.712C36.1005 13.6427 35.7912 12.128 35.1725 11.168C34.5752 10.1867 33.6152 9.696 32.2925 9.696ZM32.2925 7.136C34.7885 7.136 36.7938 7.904 38.3085 9.44C39.8445 10.9547 40.6125 13.0773 40.6125 15.808C40.6125 18.5173 39.8552 20.5867 38.3405 22.016C36.8258 23.4453 34.8098 24.16 32.2925 24.16C29.7752 24.16 27.7592 23.4453 26.2445 22.016C24.7512 20.5867 24.0045 18.5173 24.0045 15.808C24.0045 13.0773 24.7618 10.9547 26.2765 9.44C27.7912 7.904 29.7965 7.136 32.2925 7.136ZM44.9353 24.16L44.2313 24.128C44.1033 23.8933 43.9326 23.456 43.7193 22.816C43.5059 22.176 43.3886 21.696 43.3673 21.376C43.2606 19.264 43.1433 15.6053 43.0153 10.4H40.7753L40.8712 8.576C41.3619 8.23467 41.9486 7.92533 42.6313 7.648L45.2233 3.552C46.0553 3.63733 46.7059 3.86133 47.1753 4.224L47.1433 7.264C48.4873 7.30667 49.7353 7.43467 50.8873 7.648C50.8873 8.50133 50.6206 9.41867 50.0873 10.4H47.1113C47.0259 14.88 46.9726 18.24 46.9513 20.48C47.8046 20.5653 48.9673 20.8107 50.4392 21.216L50.4073 22.88C50.0446 23.1147 49.2339 23.392 47.9753 23.712C46.7379 24.0107 45.7246 24.16 44.9353 24.16ZM60.7003 21.024C61.4256 21.024 62.8976 20.5227 65.1163 19.52C65.5856 20.2027 65.9376 20.992 66.1723 21.888C64.9989 22.6133 63.8469 23.1787 62.7163 23.584C61.6069 23.968 60.8176 24.16 60.3483 24.16C57.7669 24.16 55.8043 23.4453 54.4603 22.016C53.1376 20.5867 52.4763 18.56 52.4763 15.936C52.4763 13.2907 53.1376 11.168 54.4603 9.568C55.7829 7.94667 57.7456 7.136 60.3483 7.136C62.4176 7.136 63.9963 7.808 65.0843 9.152C66.1723 10.496 66.7163 12.2453 66.7163 14.4C66.7163 14.848 66.4603 15.36 65.9483 15.936L56.7323 15.776C56.7749 17.4827 57.0949 18.784 57.6923 19.68C58.2896 20.576 59.2923 21.024 60.7003 21.024ZM60.0603 9.792C59.2496 9.792 58.4923 9.952 57.7883 10.272C57.2976 11.296 56.9883 12.2453 56.8602 13.12C58.5243 13.056 60.4123 13.0133 62.5243 12.992C62.4176 10.8587 61.5963 9.792 60.0603 9.792ZM74.8673 0C75.2726 0 75.5286 0.0106665 75.6353 0.0319996C75.6353 1.14133 75.4966 2.112 75.2193 2.944C75.1979 4.26667 75.1659 6.13333 75.1233 8.544C75.0379 13.8347 74.9739 17.888 74.9313 20.704L77.4273 20.992C77.4273 21.8667 77.1819 22.7947 76.6913 23.776H68.7233L68.4352 22.016C69.7579 21.5253 70.7179 21.2053 71.3153 21.056L70.7073 3.296C69.7046 3.18933 68.8619 3.02933 68.1793 2.816C68.1793 2.02667 68.2539 1.25867 68.4032 0.511999C69.6619 0.170666 71.8166 0 74.8673 0ZM17.0309 38.952C17.5429 38.8667 17.9269 38.824 18.1829 38.824C18.4602 38.824 19.0469 38.8987 19.9429 39.048C20.0282 39.2187 20.1455 39.7627 20.2949 40.68C20.4655 41.5973 20.5509 42.344 20.5509 42.92C20.5509 43.4747 20.4869 44.0933 20.3589 44.776H4.83888L4.55088 43.016C5.59621 42.5893 6.49221 42.28 7.23888 42.088C7.23888 42.024 7.14288 36.3813 6.95088 25.16L4.29488 24.328L4.55088 22.376H12.8709C12.8495 22.376 12.8495 22.3973 12.8709 22.44C12.9135 22.4827 12.9562 22.5787 12.9989 22.728C13.0629 22.856 13.1269 23.016 13.1909 23.208C13.3189 23.5493 13.4042 24.1147 13.4469 24.904C12.3589 25.0747 11.6442 25.1813 11.3029 25.224C11.2175 32.584 11.1642 38.0773 11.1429 41.704H16.3269L17.0309 38.952ZM30.4644 30.696C29.6964 30.696 28.8217 30.888 27.8404 31.272C27.563 31.6987 27.2964 32.456 27.0404 33.544C26.8057 34.6107 26.6884 35.688 26.6884 36.776C26.6884 38.7813 26.987 40.2107 27.5844 41.064C28.1817 41.896 29.1417 42.312 30.4644 42.312C31.8084 42.312 32.779 41.896 33.3764 41.064C33.9737 40.2107 34.2724 38.76 34.2724 36.712C34.2724 34.6427 33.963 33.128 33.3444 32.168C32.747 31.1867 31.787 30.696 30.4644 30.696ZM30.4644 28.136C32.9604 28.136 34.9657 28.904 36.4804 30.44C38.0164 31.9547 38.7844 34.0773 38.7844 36.808C38.7844 39.5173 38.027 41.5867 36.5124 43.016C34.9977 44.4453 32.9817 45.16 30.4644 45.16C27.947 45.16 25.931 44.4453 24.4164 43.016C22.923 41.5867 22.1764 39.5173 22.1764 36.808C22.1764 34.0773 22.9337 31.9547 24.4484 30.44C25.963 28.904 27.9684 28.136 30.4644 28.136ZM52.1311 39.24C51.4271 39.688 50.6805 40.0187 49.8911 40.232C49.1018 40.424 48.3338 40.52 47.5871 40.52C46.8618 40.52 46.2218 40.4453 45.6671 40.296C45.4325 40.8507 45.2085 41.2667 44.9951 41.544C45.1658 41.8 46.9578 41.928 50.3711 41.928C52.5045 41.928 54.0085 42.2587 54.8831 42.92C55.2885 43.1973 55.6405 43.6347 55.9391 44.232C56.2591 44.8293 56.4191 45.5973 56.4191 46.536C56.4191 47.496 55.9498 48.456 55.0111 49.416C54.0725 50.376 52.8991 51.1333 51.4911 51.688C50.0831 52.2427 48.6858 52.52 47.2991 52.52C44.9951 52.52 43.1285 52.0613 41.6991 51.144C40.2698 50.248 39.5551 49.128 39.5551 47.784C39.5551 47.528 39.9285 46.8987 40.6751 45.896C41.4218 44.9147 41.9125 44.3493 42.1471 44.2C41.9338 44.0933 41.5605 43.7413 41.0271 43.144C40.4938 42.5253 40.1951 42.088 40.1311 41.832C40.4085 41.064 41.2618 40.104 42.6911 38.952C41.0271 37.9493 40.1951 36.264 40.1951 33.896C40.1951 32.0187 40.8351 30.5893 42.1151 29.608C43.4165 28.6267 45.1231 28.136 47.2351 28.136C49.3685 28.136 50.9791 28.424 52.0671 29C53.8805 28.68 55.1605 28.52 55.9071 28.52C56.6751 28.52 57.1765 28.5307 57.4111 28.552C57.4111 29.064 57.2831 29.6507 57.0271 30.312C56.7925 30.952 56.5685 31.4 56.3551 31.656L53.6031 31.016C54.1365 31.784 54.4031 32.776 54.4031 33.992C54.4031 35.208 54.2005 36.2747 53.7951 37.192C53.3898 38.088 52.8351 38.7707 52.1311 39.24ZM51.9711 48.392C52.1205 47.9867 52.1951 47.5173 52.1951 46.984C52.1951 46.4507 51.9605 46.056 51.4911 45.8C51.0218 45.5653 50.4671 45.448 49.8271 45.448C47.3311 45.448 45.6778 45.4267 44.8671 45.384C44.6965 45.7467 44.4831 46.2587 44.2271 46.92C43.9711 47.6027 43.8431 48.008 43.8431 48.136C43.8431 48.264 43.9285 48.4453 44.0991 48.68C44.2698 48.936 44.6325 49.2027 45.1871 49.48C45.7631 49.7573 46.4565 49.896 47.2671 49.896C48.0991 49.896 49.0698 49.704 50.1791 49.32C51.2885 48.936 51.8858 48.6267 51.9711 48.392ZM49.3791 31.4C48.8885 30.824 48.1951 30.536 47.2991 30.536C46.4031 30.536 45.6991 30.824 45.1871 31.4C44.6965 31.976 44.4511 32.8187 44.4511 33.928C44.4511 35.016 44.7071 35.8693 45.2191 36.488C45.7311 37.1067 46.4245 37.416 47.2991 37.416C49.1978 37.416 50.1471 36.2427 50.1471 33.896C50.1471 32.808 49.8911 31.976 49.3791 31.4ZM66.1831 30.696C65.4151 30.696 64.5405 30.888 63.5591 31.272C63.2818 31.6987 63.0151 32.456 62.7591 33.544C62.5245 34.6107 62.4071 35.688 62.4071 36.776C62.4071 38.7813 62.7058 40.2107 63.3031 41.064C63.9005 41.896 64.8605 42.312 66.1831 42.312C67.5271 42.312 68.4978 41.896 69.0951 41.064C69.6925 40.2107 69.9911 38.76 69.9911 36.712C69.9911 34.6427 69.6818 33.128 69.0631 32.168C68.4658 31.1867 67.5058 30.696 66.1831 30.696ZM66.1831 28.136C68.6791 28.136 70.6845 28.904 72.1991 30.44C73.7351 31.9547 74.5031 34.0773 74.5031 36.808C74.5031 39.5173 73.7458 41.5867 72.2311 43.016C70.7165 44.4453 68.7005 45.16 66.1831 45.16C63.6658 45.16 61.6498 44.4453 60.1351 43.016C58.6418 41.5867 57.8951 39.5173 57.8951 36.808C57.8951 34.0773 58.6525 31.9547 60.1671 30.44C61.6818 28.904 63.6871 28.136 66.1831 28.136Z" fill="#262626"/>
</svg>
